<?xml version="1.0" standalone="no"?>
<!DOCTYPE svg PUBLIC "-//W3C//DTD SVG 20010904//EN"
 "http://www.w3.org/TR/2001/REC-SVG-20010904/DTD/svg10.dtd">
<svg version="1.0" xmlns="http://www.w3.org/2000/svg"
 width="112.000000pt" height="112.000000pt" viewBox="0 0 112.000000 112.000000"
 preserveAspectRatio="xMidYMid meet">

<g transform="translate(0.000000,112.000000) scale(0.100000,-0.100000)"
fill="#000000" stroke="none">
<path d="M430 1104 c-199 -52 -350 -198 -407 -396 -84 -290 77 -583 377 -684
76 -26 244 -26 320 0 243 82 400 293 400 536 0 354 -353 633 -690 544z m74
-506 c49 -101 90 -189 93 -195 4 -9 -6 -13 -29 -13 l-35 0 -68 145 c-38 81
-72 148 -76 151 -4 2 -40 -63 -80 -146 -72 -149 -72 -150 -106 -150 -18 0 -33
2 -33 4 0 2 30 66 66 142 36 77 77 163 89 192 22 48 27 52 58 52 l34 0 87
-182z m145 29 l73 -152 76 153 c74 150 76 152 108 152 l33 0 -33 -72 c-112
-243 -196 -406 -224 -432 -75 -70 -203 -64 -274 13 -21 22 -38 44 -38 49 0 5
12 14 26 21 23 10 28 9 46 -14 53 -68 148 -73 205 -11 18 20 33 44 33 54 0 10
-38 100 -85 200 -47 99 -85 184 -85 187 0 3 15 5 33 5 31 -1 33 -4 106 -153z"/>
</g>
</svg>
